<svg xmlns="http://www.w3.org/2000/svg" viewBox="0 0 800 400" width="100%">
  <rect width="800" height="400" fill="#0d1117" />
  
  <g transform="translate(40, 40)" shape-rendering="auto">
    <text x="0" y="0" fill="#8b949e" font-family="monospace" font-size="14">Avishekkk-Mohanty / README.md</text>
    
    <text x="0" y="55" fill="#e6edf3" font-family="-apple-system, BlinkMacSystemFont, Segoe UI, Helvetica, Arial, sans-serif" font-size="30" font-weight="bold">💫 About Me:</text>
    
    <text x="0" y="100" fill="#c9d1d9" font-family="-apple-system, BlinkMacSystemFont, Segoe UI, Helvetica, Arial, sans-serif" font-size="16">Hey there, It's Avishek</text>
    <text x="0" y="125" fill="#c9d1d9" font-family="-apple-system, BlinkMacSystemFont, Segoe UI, Helvetica, Arial, sans-serif" font-size="16">Aspiring AI&amp;ML Engineer</text>
    <text x="0" y="150" fill="#c9d1d9" font-family="-apple-system, BlinkMacSystemFont, Segoe UI, Helvetica, Arial, sans-serif" font-size="16">OUTR CSE(AI&amp;ML)'29</text>
  </g>

  <g shape-rendering="crispEdges">
    
    <rect x="0" y="180" width="800" height="220" fill="#5fb1f5" />
    
    <g fill="#ffffff">
      <animateTransform attributeName="transform" type="translate" from="-150 0" to="850 0" dur="25s" repeatCount="indefinite" />
      <rect x="0" y="210" width="50" height="15" />
      <rect x="-20" y="225" width="90" height="15" />
      <rect x="-10" y="240" width="60" height="15" />
    </g>

    <g fill="#ffffff" opacity="0.9">
      <animateTransform attributeName="transform" type="translate" from="-200 0" to="900 0" dur="38s" repeatCount="indefinite" />
      <rect x="300" y="240" width="40" height="10" />
      <rect x="280" y="250" width="70" height="10" />
      <rect x="290" y="260" width="40" height="10" />
    </g>
    
    <g fill="#ffffff" opacity="0.8">
      <animateTransform attributeName="transform" type="translate" from="-100 0" to="1000 0" dur="30s" repeatCount="indefinite" />
      <rect x="600" y="195" width="45" height="15" />
      <rect x="575" y="210" width="95" height="15" />
      <rect x="590" y="225" width="55" height="15" />
    </g>

    <rect x="80" y="230" width="12" height="170" fill="#22c55e" />
    <rect x="80" y="270" width="12" height="4" fill="#14532d" />
    <rect x="80" y="320" width="12" height="4" fill="#14532d" />
    <rect x="80" y="370" width="12" height="4" fill="#14532d" />

    <rect x="250" y="200" width="16" height="200" fill="#16a34a" />
    <rect x="250" y="240" width="16" height="5" fill="#14532d" />
    <rect x="250" y="290" width="16" height="5" fill="#14532d" />
    <rect x="250" y="340" width="16" height="5" fill="#14532d" />

    <rect x="720" y="210" width="14" height="190" fill="#22c55e" />
    <rect x="720" y="250" width="14" height="4" fill="#14532d" />
    <rect x="720" y="310" width="14" height="4" fill="#14532d" />
    <rect x="720" y="360" width="14" height="4" fill="#14532d" />

    <rect x="0" y="370" width="800" height="30" fill="#15803d" />
    <rect x="20" y="365" width="10" height="5" fill="#15803d" />
    <rect x="35" y="360" width="5" height="10" fill="#15803d" />
    <rect x="150" y="365" width="15" height="5" fill="#15803d" />
    <rect x="300" y="360" width="10" height="10" fill="#15803d" />
    <rect x="550" y="365" width="20" height="5" fill="#15803d" />
    <rect x="700" y="360" width="10" height="10" fill="#15803d" />

    <rect x="150" y="170" width="24" height="230" fill="#4ade80" />
    <rect x="150" y="220" width="24" height="6" fill="#14532d" />
    <rect x="150" y="280" width="24" height="6" fill="#14532d" />
    <rect x="150" y="340" width="24" height="6" fill="#14532d" />
    
    <rect x="450" y="150" width="30" height="250" fill="#4ade80" />
    <rect x="450" y="150" width="12" height="250" fill="#86efac" /> <rect x="450" y="190" width="30" height="6" fill="#14532d" />
    <rect x="450" y="250" width="30" height="6" fill="#14532d" />
    <rect x="450" y="310" width="30" height="6" fill="#14532d" />
    <rect x="450" y="370" width="30" height="6" fill="#14532d" />

    <rect x="580" y="180" width="20" height="220" fill="#22c55e" />
    <rect x="580" y="220" width="20" height="5" fill="#14532d" />
    <rect x="580" y="270" width="20" height="5" fill="#14532d" />
    <rect x="580" y="330" width="20" height="5" fill="#14532d" />

    <g id="panda">
      <rect x="495" y="250" width="10" height="15" fill="#111" />
      <rect x="500" y="220" width="10" height="15" fill="#111" />

      <rect x="475" y="220" width="35" height="45" fill="#ffffff" />
      
      <rect x="440" y="225" width="40" height="12" fill="#111" /> 
      <rect x="440" y="250" width="40" height="12" fill="#111" /> 

      <rect x="470" y="190" width="35" height="30" fill="#ffffff" />
      
      <rect x="472" y="185" width="10" height="8" fill="#111" />
      <rect x="492" y="185" width="10" height="8" fill="#111" />
      
      <rect x="474" y="200" width="8" height="8" fill="#111" />
      <rect x="490" y="200" width="8" height="8" fill="#111" />
      <rect x="476" y="202" width="2" height="2" fill="#ffffff" /> <rect x="492" y="202" width="2" height="2" fill="#ffffff" /> <rect x="484" y="210" width="6" height="4" fill="#111" />
    </g>
    
    <rect x="480" y="185" width="15" height="5" fill="#166534" />
    <rect x="495" y="180" width="10" height="5" fill="#166534" />
    <rect x="420" y="245" width="15" height="5" fill="#166534" />
    <rect x="410" y="240" width="10" height="5" fill="#166534" />
    <rect x="174" y="215" width="15" height="5" fill="#166534" />
    <rect x="189" y="210" width="10" height="5" fill="#166534" />

    <g fill="#4ade80">
      <rect x="300" y="-10" width="6" height="6">
         <animate attributeName="y" from="-10" to="400" dur="8s" repeatCount="indefinite" />
         <animate attributeName="x" values="300;320;290;310;300" dur="8s" repeatCount="indefinite" />
      </rect>
      <rect x="650" y="-10" width="8" height="8">
         <animate attributeName="y" from="-10" to="400" dur="10s" repeatCount="indefinite" begin="2s" />
         <animate attributeName="x" values="650;630;660;640;650" dur="10s" repeatCount="indefinite" begin="2s"/>
      </rect>
    </g>
  </g>
</svg>
